<svg xmlns="http://www.w3.org/2000/svg" width="257.399" height="73.733" viewBox="0 0 257.399 73.733">
  <g id="logo" transform="translate(0 108.266)">
    <path id="path14" d="M16.4-22.356c12.667,0,19.8-6.133,19.8-19.4V-69.423H26.066v3.867h-.133a11.335,11.335,0,0,0-9.466-4.534C7.667-70.089,0-63.955,0-53.356S7.667-36.622,16.467-36.622a11.338,11.338,0,0,0,9.466-4.534H26.2v1.133c0,6.4-3.266,9.4-10.067,9.4a22.077,22.077,0,0,1-11.066-3l-2.6,7.534C5.4-23.956,10.8-22.356,16.4-22.356M43.534-33.689H53.667V-50.156c0-6.933,2.4-9.267,9.533-9.267h1.866v-10a10.517,10.517,0,0,0-1.666-.134c-4.666,0-7.733,2.134-9.6,7h-.133v-6.866H43.534Zm123.8.8a20.444,20.444,0,0,0,14.266-5.4l-4.4-6.4c-3.466,2.6-5.933,3.667-9.466,3.667-4.8,0-8.133-2.2-9.133-7h24.867c.066-.934.133-1.866.133-2.666,0-10.134-5.467-19.4-17.4-19.4-10.4,0-17.667,8.4-17.667,18.667,0,11.267,7.4,18.533,18.8,18.533m6.4-21.466H158.466c.8-5,3.533-7.6,7.734-7.6,4.266,0,6.933,2.667,7.533,7.6m-91.2,21.333a12.289,12.289,0,0,0,10.333-5H93v4.333h10.134V-69.423H93v20.733c0,4.8-2.133,7-6.333,7-4.4,0-6.134-2.067-6.134-6.867V-69.423H70.4v23.133c0,8.4,4.266,13.267,12.133,13.267m27.933-.667H120.6V-54.423c0-4.8,2.133-7,6.334-7,4.4,0,6.133,2.067,6.133,6.867v20.867H143.2V-56.823c0-8.4-4.267-13.267-12.133-13.267a12.292,12.292,0,0,0-10.334,5H120.6v-4.333H110.467Zm78.466,0h10.133V-50.156c0-6.933,2.4-9.267,9.534-9.267h1.867v-10a10.525,10.525,0,0,0-1.667-.134c-4.666,0-7.733,2.134-9.6,7h-.133v-6.866H188.933ZM18.134-44.756c-4.933,0-8-2.867-8-8.6s3.067-8.6,8-8.6,7.933,3.4,7.933,8.267v.667c0,4.866-3,8.267-7.933,8.267" transform="translate(0 -12.177)" fill="#231f20"/>
    <path id="path16" d="M330.574-80.2v9.4L362.84-84.933v-9.2l-32.267-14.134v9.533l22.533,9.267L330.574-80.2" transform="translate(-105.441)" fill="#ec1c24"/>
  </g>
</svg>
